<!--This SVG export from freesvglogo.com--><svg viewBox="0 0 60 60" id="international-cat-federation" xmlns="http://www.w3.org/2000/svg"><path d="M0 60V0h60v60H0zm1.7-30v25.8c0 1.9.6 2.6 2.5 2.6 17.2-.1 34.4-.1 51.6 0 1.9 0 2.6-.6 2.6-2.5-.1-17.2-.1-34.4 0-51.6 0-1.9-.6-2.6-2.5-2.6-17.2.1-34.4.1-51.6 0-1.9 0-2.6.6-2.6 2.5V30z" fill="#000000"></path><path d="M24.5 29.4c-1.6-.5-3-1.1-4.5-1.4-3.5-.8-7.7.8-9.3 3.6-.4.7-.4 1.6-.6 2.4.7.1 1.4.4 2.1.4 2.6.1 5.2 0 7.8 0 1.1 0 2.1.1 2.1 1.6 0 1.6-1.1 1.6-2.2 1.6h-7.6c-.7 0-1.4.1-2.1.2 0 2.9 2.1 5.5 5.2 6.1 2.1.4 4.2.3 6.4.4.6 0 1.3-.2 1.8.1.5.3 1.1 1 1.1 1.5s-.7 1.4-1.2 1.4c-2.7.1-5.4.3-8-.1-6.7-1-10.2-6.6-8.8-13.7 1.1-5.8 7.4-9.8 13.4-8.5 1 .2 1.9.6 2.9.9 1.7.4 2.3 1.6 1.5 3.5zm2.9 25.8c-.1-1.1-.2-1.7-.2-2.3v-18c0-1.9.6-2.7 2.5-2.6 3.1.1 6.1 0 9.2 0 1.1 0 2 .3 2 1.7s-.8 1.7-2 1.6c-2.2 0-4.4-.1-6.6.1-.6 0-1.2.9-1.8 1.3.6.4 1.1 1.1 1.7 1.2.9.2 1.9.1 2.8.1 1.1 0 1.7.7 1.4 1.7-.2.6-.9 1-1.4 1.5-.1.1-.4 0-.6 0-4.4-.1-3.9.1-3.9 4.1 0 1.5-.1 2.9 0 4.4.2 2.4-1 3.7-3.1 5.2zM43.1 4.7c2.4 0 4.8-.1 7.2 0 1.1.1 3-.8 3 1.4.1 2.3-1.8 1.5-2.9 1.5-4 .1-8 0-12 0-1.2 0-2.4 0-2.4 1.7s1.3 1.6 2.4 1.6c.7 0 1.4-.2 2 .1.6.3 1.2 1 1.2 1.6 0 .4-.7 1.2-1.2 1.4-1.3.4-3.2.1-4 .9-.7.8-.4 2.6-.5 4-.1 1-.5 1.6-1.6 1.6s-1.6-.5-1.6-1.6V6.3c0-1.4.8-1.6 2-1.6h8.4z" fill="#000000"></path><path d="M44.2 30.4c3.5 5.2.2 9.1-2.5 13.3 2.8.9 6.3.1 7.5 3.8-.3.1-.7.4-1 .4-4.4-.2-8.9-.4-13.3-.6-.5 0-1.1.1-1.4-.1-.5-.3-1-.9-1-1.4 0-.5.5-1.2 1-1.4.5-.3 1.2-.1 1.8-.1 1.8-.1 3.8.4 5.2-1.3 2-2.3 4-4.6 4.1-7.8 0-1.4-.9-2.8-1.5-4.2-.3-.8-.9-1.5-1.4-2.2.1-.2.3-.3.4-.5.7.2 1.5.4 2.1.7.9.4 1.7 1 2.7 1.4 2.7 1.1 5-.3 5.2-3.2.2-3.1-1.5-5.5-3.5-7.6-2.7-3-2.6-2.8-5.8-.6-3.1 2.1-5.4 4.9-7.4 8-.2.3-.4.8-.7.9-.4.2-1.1.4-1.5.2-.4-.2-.8-.8-.7-1.2 0-.4.6-1.1.9-1.1 1.8-.1 2.5-1.6 3.4-2.8 1-1.2 2-2.3 3.2-3.3 1.7-1.6 3.6-3.1 5.6-4.8 1.6 1.8 3.6 3.8 5.4 5.9.8.9 1.3 2 1.7 3.1 1 2.5 1 4.9-1 6.9-1.5 1.5-3.8 1.5-6.7 0-.2-.2-.4-.3-.8-.4zm-14-22.8c.1 1 .2 1.5.2 1.9v18.8c0 1.1 0 2.2-1.6 2.2s-1.7-1-1.7-2.1V12.2c.1-2.1 1.5-3.1 3.1-4.6z" fill="#000000"></path></svg>