<svg  viewBox="0 0 57 60" fill="none" xmlns="http://www.w3.org/2000/svg">
<g clip-path="url(#clip0_516_1379)">
<path d="M53.9 14.7V0L49.1 5.2H41.2L36.5 0V11C34 10 31.2 9.5 28.4 9.5C15.9 9.5 5.7 19.5 5.7 31.9C5.7 44.3 15.9 54.3 28.4 54.3C37.8 54.3 45.8 48.6 49.3 40.6C51.4 35.9 48.5 33.6 45.8 39.3C45.6 39.7 45.4 40.1 45.2 40.4C44.2 39.2 43 38.2 41.6 37.3C42.3 35.6 42.8 33.9 43.2 32.1H51V31.8C51 27.3 49.7 23.1 47.3 19.6H47.4L53.9 14.7ZM34.4 40.4C34.9 38.8 35.3 37.1 35.5 35.3C37.4 35.9 39.2 36.7 40.8 37.7C40.1 39.3 39.3 40.8 38.3 42.2C37.1 41.4 35.8 40.8 34.4 40.4ZM37.8 42.7C37.7 42.8 37.6 42.9 37.5 43.1C36.4 44.6 35.1 46 33.7 47.3C33.1 46.9 32.4 46.6 31.6 46.4C32.6 44.8 33.4 43 34 41.1C35.5 41.5 36.7 42 37.8 42.7ZM29.3 33.6V32.2H35C35 32.9 34.9 33.7 34.9 34.4M29.3 34.3C31.2 34.3 33 34.6 34.7 35C34.5 36.7 34.1 38.4 33.6 40.1C32.2 39.7 30.8 39.5 29.3 39.5V34.3ZM29.3 40.3C30.7 40.3 32.1 40.5 33.4 40.9C33.3 41.3 33.1 41.7 33 42.1C32.4 43.5 31.8 44.9 31 46.3C30.5 46.2 29.9 46.1 29.3 46.1V40.3ZM28.6 32.2V33.6C26.7 33.6 24.9 33.9 23.2 34.3C23.1 33.6 23.1 32.9 23 32.2H28.6ZM25.1 41.7C25 41.4 24.8 41.1 24.7 40.7C25.9745 40.3736 27.2844 40.2057 28.6 40.2V46C28.2 46 27.7 46.1 27.3 46.1C26.5 44.7 25.7 43.2 25.1 41.7ZM26.6 46.2C25.8 46.4 25.1 46.6 24.5 46.9C22.9 45.6 21.5 44.1 20.3 42.5C21.4 41.8 22.7 41.3 24 40.9C24.7 42.8 25.6 44.6 26.6 46.2ZM24.5 40.1C24 38.4 23.6 36.7 23.3 35C25 34.6 26.8 34.3 28.6 34.3V39.5C27.2 39.6 25.8 39.8 24.5 40.1ZM23.8 40.3C22.4 40.7 21.1 41.3 19.9 42C18.9 40.6 18.1 39.1 17.3 37.6C18.9 36.6 20.7 35.8 22.6 35.3C22.9 36.9 23.3 38.6 23.8 40.3ZM22.3 32.2C22.3 33 22.4 33.7 22.5 34.5C20.5 35.1 18.7 35.9 17 36.9C16.3 35.4 15.8 33.8 15.4 32.2H22.3ZM10.4 32.2H14.7C15.1 34 15.7 35.7 16.4 37.3C15 38.2 13.7 39.3 12.6 40.6C11.3 38 10.5 35.2 10.4 32.2ZM13 41.2C14 40 15.3 38.9 16.7 37.9C17.4 39.5 18.3 40.9 19.3 42.3C18.1 43.1 17.1 44 16.2 45.1C15 44 13.9 42.6 13 41.2ZM22.2 48.9C20.2 48.1 18.4 47 16.8 45.7C17.6 44.7 18.6 43.8 19.7 43C20.9 44.7 22.3 46.1 23.8 47.4C23.2 47.8 22.6 48.3 22.2 48.9ZM28.9 50.1C26.8 50.1 24.8 49.8 22.9 49.1C24.1 47.7 26.3 46.7 28.9 46.7C31.5 46.7 33.8 47.7 34.9 49.1C33.1 49.8 31 50.1 28.9 50.1ZM35.7 48.9C35.4 48.5 35 48.1 34.5 47.7C36 46.4 37.3 44.9 38.5 43.2C39.5 43.9 40.4 44.8 41.1 45.7C39.5 47 37.7 48.1 35.7 48.9ZM44.8 41.2C43.9 42.7 42.8 44 41.6 45.1C40.9 44.1 39.9 43.3 38.9 42.5C39.8 41.1 40.7 39.6 41.4 38C42.7 39 43.8 40 44.8 41.2ZM41 37C39.4 36 37.5 35.1 35.5 34.6C35.6 33.8 35.6 33 35.6 32.2H42.4" fill="#1D1B1A"/>
<mask id="mask0_516_1379" style="mask-type:luminance" maskUnits="userSpaceOnUse" x="0" y="29" width="57" height="31">
<path d="M0 29.7H56.8V60H0V29.7Z" fill="white"/>
</mask>
<g mask="url(#mask0_516_1379)">
<path d="M4.2 30.2V31.6L1.7 32.2L4.3 32.5V33.7999L1.8 34.2999L4.4 34.7V36L0.1 35.0999V33.7L2.5 33.0999L0.1 32.7V31.2999L4.2 30.2ZM5.2 37.9C5.4 38.6 5.3 39.2 5 39.7C4.7 40.2 4.2 40.5 3.7 40.7C3.1 40.9 2.6 40.7999 2 40.5999C1.5 40.3999 1.1 39.8999 0.9 39.0999C0.7 38.3999 0.8 37.7999 1.1 37.2999C1.4 36.7999 1.9 36.5 2.4 36.4C2.9 36.3 3.5 36.2999 4 36.5999C4.6 36.6999 4.9 37.2 5.2 37.9ZM4.1 38.2C4 38 3.9 37.8 3.7 37.7C3.5 37.6 3.2 37.6 2.8 37.7C2.4 37.8 2.1 37.9999 2 38.0999C1.8 38.2999 1.8 38.4999 1.9 38.7999C2 38.9999 2.1 39.1999 2.4 39.2999C2.6 39.3999 3 39.3999 3.3 39.2999C3.6 39.1999 3.9 39.1 4 38.9C4.1 38.7 4.2 38.6 4.2 38.4C4.1 38.3 4.1 38.3 4.1 38.2ZM5.8 40.2999L6.7 42.2999C7 42.8999 7 43.3 6.9 43.7C6.8 44 6.6 44.3 6.4 44.4C6.2 44.5 5.9 44.5 5.7 44.5C5.4 44.5 5.3 44.4 5.2 44.2C5.2 44.5 5.1 44.8 5 44.9C4.9 45 4.7 45.1999 4.4 45.2999L4.2 45.4C4.1 45.5 4 45.4999 3.9 45.5999C3.8 45.5999 3.8 45.6999 3.8 45.7999L3.7 45.9L3 44.4C3.1 44.3 3.2 44.3 3.3 44.2C3.4 44.1 3.5 44.0999 3.6 44.0999C3.8 43.9999 3.9 43.9 4 43.9C4.1 43.8 4.1 43.6999 4.1 43.5999V43.4C4.1 43.3 4.1 43.3 4 43.2C4 43.2 4 43.0999 3.9 43.0999C3.9 43.0999 3.9 43 3.8 43V42.7999L2.5 43.4L2 42L5.8 40.2999ZM5.4 42L4.7 42.2999L5 43C5 43.1 5.1 43.2 5.2 43.2H5.5C5.6 43.2 5.6 43.1 5.7 43V42.7L5.4 42ZM7.7 44.2999L8.5 45.4L5.9 47.2L7 48.7999L6.2 49.4L4.3 46.7L7.7 44.2999ZM10 47.2999L11.2 48.5999L11.5 48.9C11.6 49 11.7 49.1999 11.7 49.2999C11.8 49.5999 11.9 50 11.9 50.4C11.9 50.8 11.7 51.1999 11.3 51.5999L11.2 51.7C10.6 52.2 10.1 52.4 9.6 52.4C9.1 52.3 8.6 51.9999 8.2 51.5999L7 50.2999L10 47.2999ZM10.2 49L8.6 50.5C8.9 50.8 9.1 51 9.4 51C9.7 51 9.9 50.8999 10.3 50.5999C10.6 50.2999 10.8 49.9999 10.7 49.7999C10.7 49.5999 10.6 49.2999 10.3 49.0999L10.2 49ZM16.2 54.2999V53.9C16.2 53.8 16.2 53.6999 16.1 53.5999C16.1 53.4999 16 53.4 16 53.4L15.9 53.2999C15.7 53.1999 15.5 53.1999 15.2 53.2999C15 53.3999 14.8 53.6 14.6 53.9C14.5 54.1 14.4 54.4 14.4 54.7C14.4 55 14.5 55.1999 14.7 55.2999C14.7 55.2999 14.8 55.3 14.8 55.4H15.3C15.4 55.4 15.6 55.2999 15.7 55.0999L16.9 55.7999C16.6 56.1999 16.3 56.4 15.7 56.5C15.2 56.6 14.7 56.5 14.2 56.2H14.1C13.5 55.8 13.2 55.4 13 54.9C12.9 54.4 13 53.7999 13.3 53.2999C13.7 52.5999 14.2 52.1999 14.7 52.0999C15.2 51.9999 15.8 52.1 16.3 52.4C16.8 52.7 17.1 53 17.3 53.4C17.4 53.7 17.5 53.9999 17.5 54.2999C17.5 54.3999 17.5 54.6 17.4 54.7C17.4 54.8 17.3 54.9 17.3 55L16.2 54.2999ZM19.4 54.0999L20.8 54.5999L20.9 59.0999L19.5 58.7V58.0999L18.2 57.7L18 58L16.7 57.5999L19.4 54.0999ZM18.8 56.7999L19.6 57.0999V55.7L18.8 56.7999ZM22.3 55L26.1 55.7L25.9 56.7999L24.7 56.5999L24.2 59.5999L22.8 59.4L23.3 56.4L22.1 56.2L22.3 55ZM28.6 55.7999L31.9 55.5L32 56.4L30.1 56.5999L30.2 57.4L31.7 57.2999L31.8 58.2999L30.3 58.4L30.4 59.7999L28.9 60L28.6 55.7999ZM32.4 55.5L35.8 54.7L36 55.7L34 56.2L34.1 56.7L35.8 56.2999L36 57.2999L34.3 57.7L34.4 58.2999L36.5 57.7999L36.7 58.7999L33.3 59.5999L32.4 55.5ZM36.1 54.7L37.7 54C37.8 54 38 53.9 38.1 53.9C38.3 53.9 38.4 53.7999 38.6 53.7999C39 53.7999 39.3 53.8 39.7 54C40.1 54.1 40.4 54.5 40.6 54.9V55C40.9 55.7 41 56.3 40.7 56.7C40.5 57.2 40 57.4999 39.5 57.7999L37.8 58.5999L36.1 54.7ZM37.7 55L38.6 57C38.9 56.9 39.1 56.7 39.2 56.4C39.3 56.2 39.3 55.8 39.1 55.4C38.9 55 38.7 54.8 38.5 54.7C38.3 54.7 38 54.6999 37.7 54.7999V55ZM40.2 52.7999L43.1 50.9L43.6 51.7L41.9 52.7999L42.2 53.2999L43.6 52.4L44.1 53.2L42.7 54.0999L43 54.5999L44.8 53.4L45.3 54.2L42.3 56.0999L40.2 52.7999ZM43.3 50.7999L44.9 49.2999C45.4 48.8999 45.8 48.5999 46.1 48.5999C46.4 48.5999 46.7 48.7 46.9 48.9C47.1 49.1 47.2 49.2999 47.2 49.5999C47.2 49.8999 47.2 50 47.1 50.2C47.4 50.1 47.6 50.1 47.8 50.2C48 50.3 48.2 50.3999 48.3 50.5999L48.5 50.7999L48.7 51H48.9L49 51.0999L47.9 52.0999C47.8 51.9999 47.7 51.9 47.6 51.9L47.4 51.7L47.1 51.4C47 51.3 46.9 51.3 46.8 51.4C46.8 51.4 46.7 51.4 46.6 51.5C46.5 51.5 46.5 51.5999 46.4 51.5999L46.3 51.7L46.2 51.7999L46.1 51.9L46 52L47 53L46 54L43.3 50.7999ZM45 50.5999L45.5 51.0999L46.1 50.5C46.2 50.4 46.2 50.3 46.2 50.2C46.2 50.1 46.2 50 46.1 49.9C46 49.8 45.9 49.7999 45.8 49.7999C45.7 49.7999 45.6 49.8 45.5 49.9L45 50.5999ZM47.2 46.7999L48.1 45.5999L52.4 46.9L51.5 48L51 47.7999L50.2 48.9L50.6 49.2999L49.8 50.4L47.2 46.7999ZM49.6 48.2L50.1 47.5L48.7 47L49.6 48.2ZM48.9 44.4L50.6 40.9L51.6 41.4L51.1 42.5L53.9 43.9L53.3 45.2L50.5 43.7999L50 44.9L48.9 44.4ZM50.8 40.5999L51.2 39.2L55.2 40.5L54.8 41.9L50.8 40.5999ZM51.8 36.5999C51.9 35.8999 52.2 35.3999 52.8 35.0999C53.3 34.7999 53.8 34.7 54.4 34.7C55 34.8 55.5 35.1 55.8 35.5C56.2 35.9 56.3 36.4999 56.2 37.2999C56.1 38.0999 55.7 38.6 55.2 38.9C54.7 39.2 54.2 39.3 53.6 39.2C53.1 39.1 52.6 38.8 52.2 38.4C51.8 37.9 51.7 37.3999 51.8 36.5999ZM52.9 36.7999C52.9 36.9999 52.9 37.2 53.1 37.4C53.3 37.6 53.5 37.6999 53.9 37.7999C54.3 37.8999 54.6 37.8 54.8 37.7C55 37.6 55.2 37.4 55.2 37.2C55.2 36.9 55.2 36.6999 55 36.5999C54.8 36.3999 54.5 36.3 54.1 36.2C53.8 36.1 53.5 36.1999 53.3 36.2999C53.1 36.3999 53 36.5 52.9 36.7V36.7999ZM52.4 33.9V32.5999L54.6 31.2H53.9L52.4 31.1V29.7L56.6 29.7999V31.1L54.3 32.5H55L56.6 32.5999V33.9H52.4Z" fill="#1D1B1A"/>
</g>
<path d="M39.7 10.1999C40.8 11.9999 42.3 12.6999 44.2 12.3999C43.1 10.2999 42 9.89991 39.7 10.1999ZM51.2 10.1999C50.1 11.9999 48.6 12.6999 46.7 12.3999C47.8 10.2999 48.9 9.89991 51.2 10.1999ZM36.9 19.9999H46.8V22.0999H40.7V24.3999H46.8V26.4999H40.7V30.9999H36.9V19.9999ZM23.2 19.9999H27L22.9 30.9999H20L18.3 25.3999L16.6 30.9999H13.7L9.6 19.9999H13.4L15.3 25.8999L17.1 19.9999H19.4L21.2 25.7999L23.2 19.9999ZM31.5 19.7999H33.7L36 20.1999V23.7999C35.3 23.3999 34.5 22.9999 33.7 22.7999H32.6C31.2 22.7999 30.1 23.8999 30.1 25.1999V25.7999C30.1 27.0999 31.2 28.0999 32.6 28.1999C33 28.1999 33.4 28.1999 33.8 28.0999C34.5 27.9999 35.2 27.5999 35.9 27.1999V30.4999C34.4 30.8999 32.9 31.1999 31.4 31.0999C28.5 30.8999 26.1 28.8999 26.1 26.0999V24.8999C26.2 22.0999 28.6 19.7999 31.5 19.7999Z" fill="white"/>
<path d="M47.5 27C45.9 27 44.6 28.1 44.6 29.5C44.6 30.9 45.9 32 47.5 32C49.1 32 50.4 30.9 50.4 29.5C50.4 28.1 49.2 27 47.5 27ZM47.5 31.4C46.2 31.4 45.1 30.5 45.1 29.4C45.1 28.3 46.2 27.4 47.5 27.4C48.8 27.4 49.9 28.3 49.9 29.4C49.9 30.5 48.9 31.4 47.5 31.4Z" fill="white"/>
<path d="M48.6 30.4001C48.6 30.3001 48.5 30.2001 48.5 30.1001C48.5 30.0001 48.4 29.8001 48.3 29.7001C48.2 29.6001 48.1 29.5001 48 29.5001C48.1 29.5001 48.2 29.4001 48.3 29.4001C48.4 29.3001 48.5 29.3001 48.5 29.2001C48.6 29.1001 48.6 29.0001 48.6 28.9001C48.6 28.8001 48.6 28.7001 48.5 28.6001C48.5 28.5001 48.4 28.4001 48.3 28.4001C48.2 28.3001 48.1 28.3001 47.9 28.2001C47.7 28.2001 47.5 28.1001 47.3 28.1001H46.5V30.8001H47V29.6001H47.6C47.7 29.6001 47.7 29.7001 47.8 29.8001C48 30.0001 48 30.1001 48 30.2001C48 30.3001 48.1 30.4001 48.1 30.5001C48.1 30.6001 48.1 30.7001 48.2 30.7001C48.2 30.8001 48.2 30.8001 48.3 30.8001H48.8C48.8 30.8001 48.8 30.7001 48.7 30.6001C48.7 30.6001 48.6 30.5001 48.6 30.4001ZM47.8 29.3001C47.7 29.3001 47.6 29.4001 47.4 29.4001H47.1V28.5001H47.7C47.8 28.5001 47.9 28.5001 47.9 28.6001C48 28.6001 48 28.7001 48 28.7001C48 28.8001 48.1 28.8001 48.1 28.9001C48.1 29.0001 48.1 29.1001 48 29.2001C48 29.2001 47.9 29.3001 47.8 29.3001Z" fill="white"/>
</g>
<defs>
<clipPath id="clip0_516_1379">
<rect width="57" height="60" fill="white"/>
</clipPath>
</defs>
</svg>
